<svg id="Layer_5" enable-background="new 0 0 64 64" height="512" viewBox="0 0 64 64" width="512" xmlns="http://www.w3.org/2000/svg" xmlns:xlink="http://www.w3.org/1999/xlink"><linearGradient id="SVGID_1_" gradientUnits="userSpaceOnUse" x1="32" x2="32" y1="63" y2="1"><stop offset="0" stop-color="#9f2fff"/><stop offset="1" stop-color="#0bb1d3"/></linearGradient><path d="m42.299 25.038-1.269-1.547c1.96-1.606 4.435-2.491 6.97-2.491 6.065 0 11 4.935 11 11 0 2.535-.885 5.01-2.491 6.97l-1.547-1.269c1.314-1.602 2.038-3.627 2.038-5.701 0-4.962-4.038-9-9-9-2.074 0-4.099.724-5.701 2.038zm-34.299 8.962c0-1.654 1.346-3 3-3s3 1.346 3 3-1.346 3-3 3-3-1.346-3-3zm2 0c0 .551.449 1 1 1s1-.449 1-1-.449-1-1-1-1 .449-1 1zm37 13.754c0 2.24-1.33 4.25-3.389 5.12l.778 1.843c2.801-1.184 4.611-3.917 4.611-6.963v-.754h-2zm-46-6.754v-4c0-1.421.993-2.615 2.322-2.923 1.076-5.087 4.85-9.115 9.862-10.531.465-1.47 1.825-2.546 3.447-2.546h2.737c1.914 0 3.469 1.492 3.605 3.372 1.523.729 2.88 1.713 4.026 2.888v-6.26-1-1h-5c-4.962 0-9-4.038-9-9v-1h7c2.826 0 5.349 1.312 7 3.356v-1.356-1c0-4.962 4.038-9 9-9h7v1c0 4.962-4.038 9-9 9h-5v4.11c1.272-1.3 3.042-2.11 5-2.11h5v1c0 3.86-3.14 7-7 7h-3v8.836c.596.989 1.063 2.053 1.4 3.164h2.636c-.021-.333-.035-.667-.035-1 0-8.271 6.729-15 15-15s15 6.729 15 15c0 6.337-4.078 12.034-10 14.134v1.62c0 5.05-3.251 9.467-8 11v1.246c0 1.654-1.346 3-3 3h-2c-1.654 0-3-1.346-3-3v-1h-8v1c0 1.654-1.346 3-3 3h-2c-1.654 0-3-1.346-3-3v-1.522c-3.258-1.148-5.561-4.067-5.939-7.486-4.386-.092-8.292-2.903-9.787-6.992h-1.274c-1.654 0-3-1.346-3-3zm28.101-22h2.899c2.415 0 4.435-1.721 4.899-4h-2.899c-2.415 0-4.435 1.721-4.899 4zm-.03-10h4.929c3.521 0 6.442-2.612 6.929-6h-4.929c-3.521 0-6.442 2.612-6.929 6zm-2.142 8c-.487-3.388-3.408-6-6.929-6h-4.929c.487 3.388 3.408 6 6.929 6zm8.111 16h2.01c-.03-.332-.05-.666-.05-1 0-2.535.885-5.01 2.491-6.97l1.547 1.269c-1.314 1.602-2.038 3.627-2.038 5.701 0 .335.023.669.059 1h.564c2.597 0 5.022.74 7.082 2h3.295v-1c0-.551-.449-1-1-1h-2c-1.654 0-3-1.346-3-3v-3h3v-2h2v2c1.654 0 3 1.346 3 3h-2c0-.551-.449-1-1-1h-3v1c0 .551.449 1 1 1h2c1.654 0 3 1.346 3 3v3h-2.762c.948.956 1.743 2.052 2.358 3.251.754-.329 1.46-.76 2.105-1.289l1.269 1.547c-.794.651-1.663 1.181-2.592 1.584.208.637.354 1.298.459 1.972 4.859-1.956 8.163-6.753 8.163-12.065 0-7.168-5.832-13-13-13s-13 5.832-13 13c0 .333.014.667.04 1zm-4.192 2c.067.458.119.919.139 1.386.165 3.859-1.211 7.517-3.876 10.298-2.647 2.763-6.206 4.289-10.026 4.312.397 2.758 2.403 5.061 5.166 5.774l.749.193v3.037c0 .551.449 1 1 1h2c.551 0 1-.449 1-1v-3h12v3c0 .551.449 1 1 1h2c.551 0 1-.449 1-1v-2.781l.757-.189c4.265-1.066 7.243-4.881 7.243-9.276v-1.883c-.063-5.99-5.167-10.871-11.377-10.871zm-15.848-10.369c0 .151.021.303.063.45l1.353 4.735c.199.697.844 1.184 1.569 1.184.755 0 1.4-.487 1.599-1.184l1.354-4.737c.041-.145.062-.296.062-.448 0-.899-.732-1.631-1.631-1.631h-2.737c-.9 0-1.632.732-1.632 1.631zm-12 16.369c0 .551.449 1 1 1h2.754l.207.725c1.056 3.695 4.476 6.275 8.319 6.275h1.72c3.303 0 6.38-1.314 8.666-3.699 2.284-2.384 3.464-5.52 3.323-8.829-.18-4.21-2.64-8.029-6.36-10.034l-1.122 3.928c-.443 1.551-1.879 2.634-3.492 2.634-1.643 0-3.079-1.083-3.522-2.634l-1.347-4.714c-4.159 1.423-7.309 5.11-7.989 9.5l-.131.848h-1.026c-.551 0-1 .449-1 1zm24-4h-2c0 4.411-3.589 8-8 8v2c5.514 0 10-4.486 10-10zm5 5c0-1.654 1.346-3 3-3h10c1.654 0 3 1.346 3 3s-1.346 3-3 3h-10c-1.654 0-3-1.346-3-3zm2 0c0 .551.449 1 1 1h10c.551 0 1-.449 1-1s-.449-1-1-1h-10c-.551 0-1 .449-1 1z" fill="url(#SVGID_1_)"/></svg>