<svg xmlns="http://www.w3.org/2000/svg" xmlns:xlink="http://www.w3.org/1999/xlink" width="669.57" height="688.23" viewBox="0 0 669.57 688.23"><defs><clipPath id="a" transform="translate(-0.11)"><path d="M207.43,366.76a108,108,0,1,1,3.93-73A107.95,107.95,0,0,1,207.43,366.76Z" fill="none"/></clipPath><clipPath id="b" transform="translate(-0.11)"><path d="M391.89,15.85c-55.41-.11-302,.63-348.78,30.41-4,88,72.19,397.35,88,392.89,48.08,95.24,146.78,160.56,260.75,160.56,161.22,0,291.92-130.7,291.92-291.93S553.12,15.85,391.89,15.85Z" fill="none"/></clipPath></defs><title>Investment-SVG</title><path d="M108,315.67C108,467.23,230.83,590.1,382.39,590.1S656.82,467.23,656.82,315.67,534,41.23,382.39,41.23,108,164.08,108,315.64Z" transform="translate(-0.11)" fill="#fff5ed"/><path d="M.11,324.79a107.84,107.84,0,1,0,24.74-68.74A107.84,107.84,0,0,0,.11,324.79Z" transform="translate(-0.11)" fill="#fff5ed"/><path d="M583,41.23A41.23,41.23,0,1,0,592.49,15,41.23,41.23,0,0,0,583,41.23Z" transform="translate(-0.11)" fill="#fff5ed"/><g clip-path="url(#a)"><path d="M96.14,427.71c10.14-8,19.85-18.55,20.53-31.45.2-3.84-.5-7.88-2.8-11s-6.4-5-10.11-4c-3.46.95-6.3,4.24-9.87,3.88-4.14-.41-6.16-5.7-5.06-9.7C90.2,370.43,94.64,366.9,99,364s9.06-5.73,11.61-10.29,1.78-11.47-3-13.6c-4.1-1.83-9.16.54-13.26-1.28-5-2.19-5.57-9.44-2.77-14.07s7.79-7.38,12.29-10.39c7.73-5.16,15.2-13.06,14.37-22.32-.65-7.18-6.6-13.27-13.59-15.09s-14.6.21-20.48,4.39S74,291.64,71,298.18a64.39,64.39,0,0,0,.14,53.88c1.7,3.6,3.74,7.9,1.68,11.31-2.38,3.95-8.74,3.26-12,0s-4.37-8-5.87-12.38-3.94-9-8.3-10.45c-5.86-2-12.29,3.1-13.75,9.12s.71,12.3,3.48,17.84c1.71,3.41,3.6,7.75,1.19,10.71-2.09,2.56-6,2.25-9.14,3.27-4.84,1.56-7.93,6.62-8.48,11.67s1,10.12,2.91,14.83c5.7,13.91,6.39,49.2,22.51,50.35,10.63.76,15.27,1.21,24,1.91-1-3.73-2.12-5.67,0-9.13,2-3.25,5.15-6.11,8-8.66C83.25,437.09,89.89,432.64,96.14,427.71Z" transform="translate(-0.11)" fill="none" stroke="#d0d2d3" stroke-miterlimit="10"/><path d="M61.56,445.45a.23.23,0,0,1-.2-.15c-3.52-9.84-2-21.55,4.68-35.81,1.5-3.22,3.17-6.44,4.78-9.55,4-7.66,8.07-15.58,10-24.08,2.08-9,1.75-18.39,1.43-27.5l-.05-1.53c-.34-10.07-.42-19.88,2.37-29.05,3.18-10.43,10.07-18.5,18.43-21.59a.23.23,0,0,1,.29.15.24.24,0,0,1-.13.28c-8.23,3-15,11-18.15,21.29-2.77,9.11-2.7,18.87-2.35,28.9l0,1.53c.32,9.15.65,18.6-1.44,27.62-2,8.55-6.1,16.5-10.08,24.19-1.61,3.11-3.28,6.32-4.78,9.53-6.61,14.14-8.13,25.74-4.66,35.46a.23.23,0,0,1-.14.29A.15.15,0,0,1,61.56,445.45Z" transform="translate(-0.11)" fill="none" stroke="#d0d2d3" stroke-miterlimit="10"/><path d="M61.93,420.68a.21.21,0,0,1-.19-.13,213.83,213.83,0,0,1-16.64-58,.23.23,0,0,1,.21-.25.24.24,0,0,1,.25.19,212.52,212.52,0,0,0,16.6,57.85.22.22,0,0,1-.12.3A.14.14,0,0,1,61.93,420.68Z" transform="translate(-0.11)" fill="none" stroke="#d0d2d3" stroke-miterlimit="10"/><path d="M82.81,361.78a.23.23,0,0,1-.21-.25.2.2,0,0,1,.14-.19,50,50,0,0,0,20.65-14.73.22.22,0,0,1,.32,0,.23.23,0,0,1,0,.32A50.44,50.44,0,0,1,82.9,361.76Z" transform="translate(-0.11)" fill="none" stroke="#d0d2d3" stroke-miterlimit="10"/><path d="M83.14,325.4a.22.22,0,0,1-.19-.12,36.65,36.65,0,0,1-.78-31.12.23.23,0,0,1,.31-.1.22.22,0,0,1,.11.28,36.16,36.16,0,0,0,.77,30.73.23.23,0,0,1-.1.31A.17.17,0,0,1,83.14,325.4Z" transform="translate(-0.11)" fill="none" stroke="#d0d2d3" stroke-miterlimit="10"/></g><path d="M356.88,100.58l-4.48-1.74A44.69,44.69,0,0,1,355.34,93l4.15,2.42A41.33,41.33,0,0,0,356.88,100.58Zm5.83-10-3.88-2.84q1.89-2.56,4-4.94L366.42,86q-2,2.19-3.71,4.56Zm7.86-8.69-3.2-3.59a56.28,56.28,0,0,1,5-4l2.77,3.93a51.34,51.34,0,0,0-4.57,3.64Zm9.52-6.72-2.28-4.22a50.92,50.92,0,0,1,5.8-2.7l1.76,4.47a48.6,48.6,0,0,0-5.28,2.45Zm49.83-1.3c-1.38-.47-2.76-.91-4.12-1.32l1.36-4.6c1.43.42,2.88.89,4.32,1.38Zm-39-2.95-1.22-4.65A55.46,55.46,0,0,1,395.94,65l.67,4.75a52.94,52.94,0,0,0-5.71,1.15ZM420,71c-2-.45-3.93-.81-5.84-1.09l.7-4.76c2,.3,4.11.69,6.19,1.16Zm-17.59-1.79-.17-4.8q3.08-.1,6.34.09l-.29,4.8a55.41,55.41,0,0,0-5.88-.09Z" transform="translate(-0.11)" fill="#e0e0e0"/><path d="M445.27,73.91A4.42,4.42,0,1,1,441,69.39a4.43,4.43,0,0,1,4.32,4.52Z" transform="translate(-0.11)" fill="#e0e0e0"/><path d="M318.07,78.29a4.42,4.42,0,1,1-4.42-4.42A4.42,4.42,0,0,1,318.07,78.29Z" transform="translate(-0.11)" fill="#e0e0e0"/><path d="M481.24,33.47a4.42,4.42,0,1,1-4.42-4.42A4.42,4.42,0,0,1,481.24,33.47Z" transform="translate(-0.11)" fill="#e0e0e0"/><path d="M456.27,250l-9.69,17H466Zm0,7.44,3.34,5.84h-6.67Z" transform="translate(-0.11)" fill="#f0f0f0"/><path d="M551.61,109.68l-2.88-2.88-4.32,4.31-4.32-4.32-2.88,2.89,4.32,4.31-4.32,4.32,2.88,2.89,4.32-4.32,4.32,4.32,2.88-2.89L547.29,114Z" transform="translate(-0.11)" fill="#f0f0f0"/><rect x="298.02" y="123.65" width="16.28" height="4.08" transform="translate(0.68 253.31) rotate(-45)" fill="#f0f0f0"/><path d="M301.53,122.88a2.07,2.07,0,1,0-2.06-2.06,2.06,2.06,0,0,0,2.06,2.06Z" transform="translate(-0.11)" fill="#f0f0f0"/><path d="M311,128.25a2.07,2.07,0,1,0,2.07,2.07A2.07,2.07,0,0,0,311,128.25Z" transform="translate(-0.11)" fill="#f0f0f0"/><path d="M447.18,497c-11.64-29.83-19.41-65.29-5.81-96.75,4.06-9.38,10.2-18.25,18.53-23.2s19.05-5.16,25.52,1.24c6,5.95,8.08,16.81,15.86,19.76,9,3.41,19.34-7,21.74-17.77,3-13.47-2-26.61-7.62-38.14s-12-23.28-12-36.86,9.66-29.21,22-29.22c10.59,0,18.28,11,28.86,11.06,12.77,0,22.48-16.59,22.07-30.6s-7.48-25.86-13.28-37.81c-10-20.52-16.19-47.27-3.7-68.46,9.68-16.43,29.06-24.6,45.59-21.53s29.9,16,37.19,32.22,9,35.32,7.68,54.13c-3.39,48.39-27.1,96.68-62.95,128.24-7.7,6.78-16.9,14.85-16.62,25.17.33,11.94,14.27,17.06,24.79,12.73s18.35-14.46,26.52-23.27,18.55-17.17,29.3-16.08c14.41,1.47,21.76,20.45,17.79,36.34s-15.78,28.56-27.94,38.8c-7.5,6.31-16.44,14.67-14.9,24.28,1.33,8.31,9.76,11.73,15.06,17.48,8.18,8.87,8.67,24.2,3.94,36.84s-13.8,23.05-23.25,32.23c-27.95,27.1-70.41,110.46-105,96.09-22.85-9.48-32.95-13.34-51.88-21,6.32-7.87,11-11.24,10.58-21.76-.36-9.9-3.53-20-6.37-29.1C462.88,533,454.35,515.33,447.18,497Z" transform="translate(-0.11)" fill="#a6a8ab"/><path d="M498,576a.56.56,0,0,0,.59-.15c18.7-19.71,29.16-49.25,32-90.31.63-9.26.93-18.71,1.23-27.84.71-22.47,1.45-45.71,7.27-68.05,6.13-23.56,17.76-45.67,29-67.05l1.88-3.59c12.43-23.64,24-46.92,28.89-71.74,5.57-28.22.73-54.78-12.94-71a.5.5,0,0,0-.71,0,.12.12,0,0,0,0,.05.65.65,0,0,0-.07.85c13.46,16,18.2,42.17,12.7,70-4.86,24.64-16.37,47.82-28.74,71.37L567.11,322c-11.29,21.45-23,43.63-29.14,67.34-5.85,22.49-6.59,45.8-7.31,68.35-.29,9.12-.59,18.55-1.23,27.79-2.8,40.73-13.13,70-31.61,89.46a.66.66,0,0,0-.05.85A.59.59,0,0,0,498,576Z" transform="translate(-0.11)" fill="#f1eef6"/><path d="M526,516.55a.53.53,0,0,0,.55-.12A619.17,619.17,0,0,0,628.29,395.92a.6.6,0,0,0-.1-.82.54.54,0,0,0-.74.17v0A617.89,617.89,0,0,1,525.89,515.54a.67.67,0,0,0-.11.84A.5.5,0,0,0,526,516.55Z" transform="translate(-0.11)" fill="#f1eef6"/><path d="M551.38,354a.51.51,0,0,0,.57-.14A.64.64,0,0,0,552,353c-13-15.77-21.83-35.49-25.5-57a.48.48,0,0,0-.54-.43h-.09a.67.67,0,0,0-.43.74c3.7,21.73,12.59,41.63,25.73,57.55A.41.41,0,0,0,551.38,354Z" transform="translate(-0.11)" fill="#f1eef6"/><path d="M593,267a.53.53,0,0,0,.53-.1c21.26-17.77,35.39-45.19,37.8-73.34a.5.5,0,0,0-.43-.59h-.06a.64.64,0,0,0-.59.6c-2.38,27.8-16.33,54.87-37.32,72.41a.66.66,0,0,0-.15.84A.51.51,0,0,0,593,267Z" transform="translate(-0.11)" fill="#f1eef6"/><g clip-path="url(#b)"><path d="M94.14,94.32c-.6,9.93,3.68,21.83,5.24,31.68.59,3.72,1.19,7.52.63,11.25A16.8,16.8,0,0,1,80.9,151.37a17.14,17.14,0,0,1-4.32-1.26C65.83,145,64.14,129.48,62,118.19c-2.57-13.81-16.68-52.87-7.6-64.35,3.67,6.74,5,16,7.84,23.55a.93.93,0,0,0,.49.54.85.85,0,0,0,.73,0A1,1,0,0,0,64,76.61c-2.19-5.78-4.12-12.75-6.17-20.14-.39-1.4-.79-2.81-1.18-4.24a2.44,2.44,0,0,1,.83-2.6l.09-.07a2.11,2.11,0,0,1,2.95.47,2,2,0,0,1,.34.75c.35,1.2.7,2.43,1,3.68,2.18,7.71,4.43,15.7,7.07,20.69a.94.94,0,0,0,.44.42.87.87,0,0,0,.84,0,1.07,1.07,0,0,0,.36-1.39c-2.54-4.8-4.76-12.67-6.91-20.28q-.72-2.55-1.42-5A2.44,2.44,0,0,1,63.64,46a2.1,2.1,0,0,1,2.75,1.14,1.73,1.73,0,0,1,.11.32c2.55,8.84,5.33,17.67,8.3,26.31a1,1,0,0,0,.5.57.88.88,0,0,0,.71,0,1,1,0,0,0,.55-1.3c-3-8.84-5.88-17.88-8.47-26.92a1,1,0,0,1,1-1.34,4.41,4.41,0,0,1,1.88.59c3.24,1.93,5.09,9.58,6.39,13,2.47,6.54,6.74,15.75,11.49,25.84-.62-.66,6.89-16.6,8.8-15.44a2.26,2.26,0,0,1,.89,2.12,7.48,7.48,0,0,1-.69,2.35A55.37,55.37,0,0,0,94.14,94.32Z" transform="translate(-0.11)" fill="#f8c208"/><path d="M352.81,316.78c14.32-13.6,8.05-35.51-5.06-47.33A63.12,63.12,0,0,0,337,261.7c-15.64-9-34.11-11.43-52-13.68-43-5.41-93.18-10.8-129.14-37.54-26-19.34-41.23-63.36-56.52-91.1-14,.83-24.38,2-38.17,4,9,28.59,11.37,57.41,22.61,85.68,6.23,15.66,12.53,31.46,21.88,45.47,13.49,20.2,33.44,38.14,53.39,51.87,18.84,12.95,44,16.08,66.34,19.95,22.13,3.83,44.44,7.67,66.89,7.1C310.39,333,338.82,330.07,352.81,316.78Z" transform="translate(-0.11)" fill="#2b5597"/><path d="M76.93,107.47c-3.21-10,1.72-22,11-26.9l1.65,3.13a19.72,19.72,0,0,0-9.27,22.68Z" transform="translate(-0.11)" fill="#f7903c"/><path d="M308.89,569.91c6.43-32,34.78-85,7.17-111.17a56.38,56.38,0,0,0-3.75-7.24c-19.12-30.87-71.76-31.37-91.46-.87-8.62,13.35-10.93,29.68-12.92,45.44Q201.18,549.44,195.72,603H302.53Q305.59,586.44,308.89,569.91Z" transform="translate(-0.11)" fill="#6d6e70"/><path d="M394.42,546.68Q394,545,393.7,543c-1.44-7.89-2.65-18.76-4.66-28.82-.26-1.31-.54-2.62-.83-3.91-1.86-8.08-4.35-15.26-8.06-19.4-5.65-6.38-13.81-9.86-22-12.15a139.17,139.17,0,0,0-16-3.59c-21.79-3.48-44.29-.59-44.22,25.27,0,1.77,0,3.55,0,5.32s0,3.73,0,5.59c-.13,30.63-1.08,61.16-1.74,91.65H403.08A454.21,454.21,0,0,0,394.42,546.68Z" transform="translate(-0.11)" fill="#2300b1"/><path d="M286.13,506.76l-4.2-1a316.63,316.63,0,0,1-50.12-17c9.35-24.52,24.95-44.12,46-50,1.71.43,3.43.93,5.19,1.52,12.73,4.29,25.94,8.86,35.39,18.3.33.33.67.67,1,1a47.09,47.09,0,0,1,9.68,15.61,157.11,157.11,0,0,1,17.06,3.59c8.69,2.29,17.38,5.77,23.4,12.15,4,4.14,6.6,11.33,8.58,19.41.32,1.29.61,2.6.89,3.91-6.18.44-12.39.7-18.59.77q-13.89.13-27.77-1-11.46-.91-22.85-2.67c-31.07-4.76-58.73-11.33-87.52-25.53-5.66-2.79-12.19-7.63-10.9-14a4.93,4.93,0,0,1,2.14-3.34Z" transform="translate(-0.11)" fill="#404041"/><path d="M327.15,272.65l.74-.75q2-3.86,4-7.66Z" transform="translate(-0.11)" fill="#150077"/><path d="M327.15,272.65a45.13,45.13,0,0,0-11.75,20.78Z" transform="translate(-0.11)" fill="#150077"/><path d="M375.26,263.47c-28.75-12.32-74.79-19.78-105.64-17.45a62.26,62.26,0,0,0-48.23,30.15c-33.24,56.92,2.42,122-13.54,181-1.15,4.28-2.32,8.82-1.17,13.12,2,7.35,9.88,11.28,17.08,13.82,31,10.89,64.32,12.86,97.13,14.69,14.45.83,34.4,2.16,49.4-3.53,9.16-3.47,16.45-9.55,19.52-20,3.86-13.05,1.93-27,3.26-40.58,2.47-25.07,16-47.9,24.3-71.62a119.4,119.4,0,0,0,5.47-20.79,80.55,80.55,0,0,0,1-12.41C424,298.23,403.18,275.46,375.26,263.47Z" transform="translate(-0.11)" fill="#2a7de1"/><path d="M299.74,289A309.23,309.23,0,0,0,330,267.22c1.53-1.33,3.1-2.58,4.7-3.77,4.09-3.3,7.74-4.47,11.83-7.79l-9.75-39.6h-43.5V272.5A24.18,24.18,0,0,0,299.74,289Z" transform="translate(-0.11)" fill="#f8c208"/><path d="M285.41,215.67l8.48-37.26c.22-.94,5.31-9,5.63-9.94l51.77,13.08c-.09.94,4.94,18.22,4.73,19.16l-20.23,18.4a16.34,16.34,0,0,0-.46,4.18c-.51.35-1,.72-1.47,1.1-.69-.2-1.46-.41-2.36-.6-6.14,6-25.85,14.74-39.22,10C284.74,231.15,283.7,223.21,285.41,215.67Z" transform="translate(-0.11)" fill="#f8c208"/><path d="M291.42,190.48l-7.37,15.75c-.4.85.5,1.88,1.9,2.18l7.73,1.65L299,187.24Z" transform="translate(-0.11)" fill="#f8c208"/><path d="M325.47,221.19a11,11,0,0,0,15.07-.67,10,10,0,0,0-.28-14.11l-.42-.38a11,11,0,0,0-15.07.68,10,10,0,0,0,.28,14.1A5.14,5.14,0,0,0,325.47,221.19Z" transform="translate(-0.11)" fill="#f8c208"/><g opacity="0.3"><path d="M417.37,363.13c-8.29,23.73-21.83,46.56-24.31,71.63-1.32,13.54.6,27.52-3.25,40.57-3.08,10.43-10.36,16.51-19.52,20a78.45,78.45,0,0,1,.92-11.56c1.5-9.52,5-17.95,7.2-27.09,5.2-21.3,3.57-45,1.85-67.64-1.13-14.78-4.5-33.68-1.82-47.28C387.9,341.83,405.81,350.53,417.37,363.13Z" transform="translate(-0.11)" fill="#231f20"/></g><path d="M334.62,181.84C336,184,325,184.35,322.94,189s6.27,7.92,8.6,11.43c1,1.5.21,9.6,1.51,9.63,1.73,0,5-8.18,7.3-8.5,3.93-.56-2.32,8.79-4.54,18.76a4.4,4.4,0,0,0,1.2,4.3,36.15,36.15,0,0,0,20.47-19.57c4.54-10.49,5-23.63,2-31.87-2.69-7.25-11.57-8.84-16.8-6.51,0,0-3.59-10.54-6.26-12.58-6.39-4.87-26.47-1.72-40.34-3-14.9-1.36-23.42-7-23.42-7s-3.06,25.28,8.65,35c13.1,10.92,24.23,7.16,30.51,6.58C322.12,184.81,333.44,180.06,334.62,181.84Z" transform="translate(-0.11)" fill="#12284c"/><path d="M337,224.63a33.41,33.41,0,0,0,17.14-10.43,42.11,42.11,0,0,0,9.31-19.83,49,49,0,0,0,1-11.33,36.66,36.66,0,0,0-2-11.69,14.71,14.71,0,0,0-9.32-8.72,16.94,16.94,0,0,0-11.8.33l4.72,2.3a68.68,68.68,0,0,0-4.53-10.42,17.15,17.15,0,0,0-1.92-2.8,10.63,10.63,0,0,0-3.16-2.32,20.2,20.2,0,0,0-5.6-1.56c-7.08-.82-13.58-.36-20.1.08s-12.87.92-19.21.29a61.51,61.51,0,0,1-18.86-4.39c5.41,4.19,11.84,6.64,18.33,8.3s13.32,1.88,19.83,2.06,13.1,0,19,1.16a16.61,16.61,0,0,1,3.84,1.13c.42.3.89.52.89.63a11.22,11.22,0,0,1,1,1.54,67.81,67.81,0,0,1,3.79,9.11l0,.07a3.49,3.49,0,0,0,4.33,2.36l.31-.11.06,0a10.59,10.59,0,0,1,7.11-.25,7.9,7.9,0,0,1,5.1,4.31c2.2,5.31,2.45,12.37,1.73,18.85a42,42,0,0,1-6.48,18.4A39.47,39.47,0,0,1,337,224.63Z" transform="translate(-0.11)" fill="#12284c"/></g><path d="M280.73,434.71H614a7,7,0,0,1,7,7V650.42a7,7,0,0,1-7,7H280.73a7,7,0,0,1-7-7V441.76a7,7,0,0,1,7-7Z" transform="translate(-98.85 98.74) rotate(-11.35)" fill="#e7f0f8"/><rect x="297.46" y="540.3" width="299.66" height="10.61" transform="matrix(0.98, -0.2, 0.2, 0.98, -98.76, 98.72)" fill="#dae343"/><rect x="303.58" y="570.83" width="299.66" height="10.61" transform="matrix(0.98, -0.2, 0.2, 0.98, -104.65, 100.52)" fill="#dae343"/><rect x="311.54" y="618.74" width="106.07" height="13.26" transform="translate(-116.08 84) rotate(-11.35)" fill="#dae343"/><path d="M416.21,512.94l-4.26.85L406.37,486c-.56-2.78-1.34-5.6-2-8l4.41-.88,1.27,5.24.17.11a12.51,12.51,0,0,1,9.87-8.74c11.67-2.34,14.67,7.82,15.5,12l4.5,22.41-4.27.86-4.64-23.13c-1.25-6.21-5.54-9.13-11.37-8-7,1.42-9.06,8-7.77,14.4Z" transform="translate(-0.11)" fill="#1a428a"/><path d="M500.5,458.89l17.62,26.53,6-31.27,4.55-.91-9.79,51.66-4.62.93,2.67-14.29-21.49-31.63Z" transform="translate(-0.11)" fill="#1a428a"/><path d="M582.33,456.67l-14.1,2.83-2.83-14.1L557.49,447l2.83,14.1-14.1,2.83,1.59,7.92,14.1-2.83,2.83,14.1,7.91-1.59-2.83-14.1,14.1-2.83Z" transform="translate(-0.11)" fill="#1a428a"/><path d="M473.29,502a13.8,13.8,0,0,1-12.66-3.52,23.39,23.39,0,0,1-6.36-12.41,22.8,22.8,0,0,1,1.25-13.91A14.11,14.11,0,0,1,466,464a14.25,14.25,0,0,1,13.42,3.33,25.06,25.06,0,0,1,6.41,13.47L459,486.15a17.22,17.22,0,0,0,4.86,9.31,11,11,0,0,0,10,2.33,9.92,9.92,0,0,0,6-3.73,11.37,11.37,0,0,0,2.33-6.84l4.36-.88a16.84,16.84,0,0,1-3.61,10.56A16.17,16.17,0,0,1,473.29,502Zm-6.49-34.11a9.91,9.91,0,0,0-7.05,5.28,15.92,15.92,0,0,0-1.43,9l22.18-4.45a15.1,15.1,0,0,0-4.85-8,10.42,10.42,0,0,0-8.85-1.83Z" transform="translate(-0.11)" fill="#1a428a"/><path d="M378.33,522.21a14.93,14.93,0,0,1-13.42-3.5,23.94,23.94,0,0,1-5.23-26.05,15.87,15.87,0,0,1,24.46-4.91,24,24,0,0,1,5.23,26A14.93,14.93,0,0,1,378.33,522.21Zm-6.83-34a10.45,10.45,0,0,0-8,6.85,20.3,20.3,0,0,0,4,20,10.72,10.72,0,0,0,17.95-3.6,20.33,20.33,0,0,0-4-20,10.46,10.46,0,0,0-10-3.25Z" transform="translate(-0.11)" fill="#1a428a"/><path d="M291.31,506.8l.16.11a12.23,12.23,0,0,1,9.64-8.69A11.73,11.73,0,0,1,314,503.8c1.73-4.73,5-9.18,10.47-10.27,11.43-2.3,14.41,7.87,15.24,12l4.5,22.41-4.18.84-4.64-23.13c-1.25-6.21-5.46-9.15-11.17-8-6.9,1.39-8.85,7.94-7.56,14.36l4.14,20.63-4.18.84L312,510.37c-1.25-6.21-5.46-9.15-11.17-8-6.9,1.38-8.84,7.93-7.55,14.36l4.14,20.62-4.19.84-5.57-27.76c-.56-2.78-1.34-5.6-2-8l4.32-.87Z" transform="translate(-0.11)" fill="#1a428a"/><path d="M502.61,393.8c10.33,20.36,16.43,40.79,15.46,59.4-.52,10.1-3.45,19.9-6.36,29.59-9.2,30.62-17.74,65.08-35,92.25-4.51,7.1-12.37,15.06-19.93,11.36-5.79-2.84-6.67-10.57-6.78-17l-2.1-121c-.1-5.9-.26-12-2.9-17.31-3.88-7.78-12.22-12.08-19.88-16.19-34.46-18.48-92.17-51.45-94.86-94.4-2.4-38.43,28.95-68.62,65.15-45.18C429.68,297.49,478.08,345.45,502.61,393.8Z" transform="translate(-0.11)" fill="#2b5597"/><path d="M448.87,557.93c-.13,15.63-1.81,30.74-7.38,44A42.25,42.25,0,0,1,430.8,617a6.85,6.85,0,0,0-1.42,1.57,2,2,0,0,0,0,2c1.12,1.62,12.4-7.26,12.85-8.54,0,.34,0,.72,0,1,0,.55.06,1.07.05,1.57.32,8.78.49,16.67.21,22.27-.14,3.22-1.34,10,.65,12.82a4.56,4.56,0,0,0,1.36,1.23.91.91,0,0,0,1.23-.36.88.88,0,0,0,.1-.3c1.09-8.17,2-16.46,2.58-24.62a.89.89,0,0,1,.94-.81h0a.91.91,0,0,1,.6.28.81.81,0,0,1,.2.65c-.63,8-1.49,16.08-2.53,24.1a2,2,0,0,0,1.68,2.25l.21,0a2,2,0,0,0,2.12-1.76c.18-1.45.38-3,.58-4.47.93-6.88,1.91-14,1.54-18.77a.89.89,0,0,1,.78-1,.89.89,0,0,1,.94.82c.4,5-.59,12.2-1.54,19.14-.15,1.16-.3,2.25-.45,3.34a2,2,0,0,0,1.71,2.27,2.07,2.07,0,0,0,.61,0h.07a2,2,0,0,0,1.64-1.74c.19-1.28.36-2.53.55-3.81.92-6.65,1.81-12.93,2.07-18.37a.86.86,0,0,1,.92-.81h0a.68.68,0,0,1,.6.28.83.83,0,0,1,.21.62c-.26,5.54-1.16,11.85-2.09,18.53-.16,1.12-.33,2.24-.5,3.39a.57.57,0,0,0,.8.57,8.14,8.14,0,0,0,1-.72c1-.84,0,0,2.49-3.1,1.07-1.33,3.82-13.08,5.54-25.57,1.38-10,2.94-20,4.51-30,1.8-4,3.19-8.28,4.35-11.47,1.82-5,3.66-10.88,5.45-17.33-11.49-2-23-3.89-34.57-5.15C448.87,557.4,448.88,557.67,448.87,557.93Z" transform="translate(-0.11)" fill="#f8c208"/><path d="M496.68,210.66h0L495.07,197a4.56,4.56,0,0,0-5.06-4h0l-58,6.85a4.56,4.56,0,0,0-4,5.07l.56,4.76-4.76.57a4.54,4.54,0,0,0-4,5.06l4.32,36.57a4.56,4.56,0,0,0,5.06,4h0l58-6.86a4.55,4.55,0,0,0,4-5.05h0l-.56-4.77,4.76-.56a4.55,4.55,0,0,0,4-5.06h0l-2.7-22.85Zm-65.92-6.1a1.8,1.8,0,0,1,1.56-2l58-6.85h0a1.77,1.77,0,0,1,2,1.56h0l1.46,12.32-6.54.77-.36-3a4.54,4.54,0,0,0-5.06-4h0l-50.48,6Zm57.3,41a1.8,1.8,0,0,1-1.19.67l-58,6.85a1.78,1.78,0,0,1-2-1.56L422.57,215a1.78,1.78,0,0,1,1.56-2l6.14-.72h0l51.86-6.14a1.77,1.77,0,0,1,1.31.38,1.8,1.8,0,0,1,.67,1.19l4.32,36.57a1.72,1.72,0,0,1-.37,1.31Zm8.2-10.39a1.79,1.79,0,0,1-1.2.66l-4.76.57-2.75-23.25,6.53-.77,2.54,21.49a1.75,1.75,0,0,1-.36,1.3Zm-70.64-16.1a1.39,1.39,0,0,1,1.22-1.54l21.92-2.6a1.39,1.39,0,0,1,.33,2.76h0l-21.92,2.6a1.41,1.41,0,0,1-1.55-1.22Zm19,25.87a1.39,1.39,0,0,1-1.21,1.55l-13,1.53a1.39,1.39,0,1,1-.33-2.76h0l13-1.53a1.38,1.38,0,0,1,1.54,1.21h0Zm40.73-4.81a1.38,1.38,0,0,1-1.21,1.54L450,245.72a1.39,1.39,0,0,1-.32-2.76l34.2-4.05a1.4,1.4,0,0,1,1.55,1.22h0Zm-13.17-4.2a8.25,8.25,0,1,0-9.15-7.22,8.25,8.25,0,0,0,9.15,7.22Zm-1.61-13.62a5.47,5.47,0,1,1-4.78,6.07,5.47,5.47,0,0,1,4.78-6.07Zm-41.36,15.46,10.59-1.25A1.38,1.38,0,0,0,441,235l-.89-7.57a1.4,1.4,0,0,0-1.55-1.22L428,227.45A1.38,1.38,0,0,0,426.8,229h0l.89,7.57a1.38,1.38,0,0,0,1.54,1.21Zm.49-7.73,7.83-.92.57,4.8-7.83.93Z" transform="translate(-0.11)" fill="#2a7de1"/><rect x="175.27" y="180.29" width="49.33" height="2.27" fill="#a6a8ab"/><rect x="187.18" y="173.35" width="29.49" height="2.27" fill="#a6a8ab"/><rect x="201.47" y="161.76" width="2.27" height="52.58" transform="translate(14.21 390.43) rotate(-89.93)" fill="#a6a8ab"/><path d="M181.9,175.54l-6.2,0a1.14,1.14,0,0,1-1.13-1.14l.05-51.91a1.17,1.17,0,0,1,1.18-1.14h73.86v2.27H176.93l-.06,49.65,5,0Z" transform="translate(-0.11)" fill="#a6a8ab"/><path d="M213.5,149.86a4.57,4.57,0,0,1-3.3-1.22c-1.35-1.32-1.52-3.52-1.52-5.45v-.47c0-3.9,2-5.8,5.74-5.8h11.12a1.14,1.14,0,0,1,0,2.27H214.42c-2.21,0-3.36.6-3.5,3.53v.44c0,2,.27,3.33.84,3.89a2.68,2.68,0,0,0,1.93.64h3.76a1.14,1.14,0,0,1,0,2.27h-3.73C213.65,150,213.57,149.86,213.5,149.86Z" transform="translate(-0.11)" fill="#2a7de1"/><path d="M221.83,160.17H210.48a1.14,1.14,0,1,1,0-2.27h11.35c2.25,0,3.3-1.11,3.3-3.13v-1.86c0-2-1-2.95-3.3-2.95h-4.38a1.14,1.14,0,1,1,0-2.27h4.38c3.48,0,5.56,2,5.56,5.22v1.86C227.39,158,225.31,160.17,221.83,160.17Z" transform="translate(-0.11)" fill="#2a7de1"/><rect x="217.07" y="159.03" width="2.27" height="5.1" fill="#2a7de1"/><rect x="217.07" y="132.95" width="2.27" height="5.67" fill="#2a7de1"/><rect x="167.33" y="138.76" width="2.27" height="42.53" fill="#a6a8ab"/><path d="M227.66,102.47a.87.87,0,0,1-.86-.86.85.85,0,0,1,.85-.84H238a.82.82,0,0,1,.85.82h0a.83.83,0,0,1-.84.85l-10.37,0Z" transform="translate(-0.11)" fill="#2a7de1"/><path d="M232.85,107.57a.83.83,0,0,1-.85-.8v0l0-10.3a.81.81,0,0,1,.82-.79h0a.81.81,0,0,1,.85.76v0l0,10.32a.82.82,0,0,1-.82.8h0Z" transform="translate(-0.11)" fill="#2a7de1"/><path d="M193.37,148.91a2.86,2.86,0,1,1-2.85-2.85,2.86,2.86,0,0,1,2.85,2.85Z" transform="translate(-0.11)" fill="#2a7de1"/><path d="M176.43,137.69l-.17-2.27.09,1.13-.09-1.12c.52,0,12.64-1.07,12.64-13.55h2.27C191.17,136.63,176.58,137.68,176.43,137.69Z" transform="translate(-0.11)" fill="#a6a8ab"/><path d="M189.62,173.57c0-.41-1.2-10.19-13.67-10.19v-2.27c14.74,0,15.91,12.14,15.93,12.26l-2.22.2,1.11-.1Z" transform="translate(-0.11)" fill="#a6a8ab"/><path d="M292.29,185.46s6.8,2.56,22.86,0c0,0,18.45-5.2,19.47-3.62s-5.65,3-5.65,3-7.55,2.19-6.12,6.85-31.71-1.19-31.71-1.19Z" transform="translate(-0.11)" fill="#231f20" opacity="0.3" style="isolation:isolate"/><path d="M293.32,234.15s17.7,3,31.11-5.47c0,0-7.74,15.08-31.11,17.25Z" transform="translate(-0.11)" fill="#231f20" opacity="0.3" style="isolation:isolate"/><path d="M78.36,193.52s46.52,86.61,133,100.22c0,0-3.82,24.59-4.15,29.53C207.21,323.27,120.55,324.16,78.36,193.52Z" transform="translate(-0.11)" fill="#231f20" opacity="0.3" style="isolation:isolate"/><path d="M207.43,366.76s22.65,5.17,24.42,43.85,7.81,41.27,11.71,42.63,37.26-6.09,37.26-6.09l88.82,1L263.46,469.41s-9.29-3.27-3.95,23.33c0,0-46.77-4.92-52.83-22.41,0,0-2.86-7.39,4.41-20.87S209.44,374.54,207.43,366.76Z" transform="translate(-0.11)" fill="#231f20" opacity="0.3" style="isolation:isolate"/><path d="M205.73,513.69c0,.13,34.1,25.33,62.9,24.49l7.57,37.7s-42.41-15.58-72.55-45Z" transform="translate(-0.11)" fill="#231f20" opacity="0.3" style="isolation:isolate"/><path d="M57.38,99.75S64,115.56,70.94,115.56,96.12,111,96.12,111l2,8.5-35.16,3.69Z" transform="translate(-0.11)" fill="#231f20" opacity="0.3" style="isolation:isolate"/><path d="M468,628.5s13.16-10.54,21.47-31.61,37.26-97.4,45.42-117.36,3.93-65.4,3.93-65.4l-25.66,5.15a87.31,87.31,0,0,1,4.93,33.91c-.94,19.51-29,97.22-29,97.22s-6.76,17.74-11.11,29.21S472,593.76,468,628.5Z" transform="translate(-0.11)" fill="#231f20" opacity="0.3" style="isolation:isolate"/><path d="M621.52,527.8l11.89-12.88L615.78,404.58s-.32-17.74-14.7-16-92.59,17.92-92.59,17.92l4.66,12.76,74.31-14.92s6.87-2.91,10,6.63S621.52,527.8,621.52,527.8Z" transform="translate(-0.11)" fill="#231f20" opacity="0.3" style="isolation:isolate"/></svg>