<svg viewBox="0 0 48 48" xmlns="http://www.w3.org/2000/svg" xmlns:xlink="http://www.w3.org/1999/xlink" >
<defs>



 <path fill="#000000" id="i-428" d="M48,33.986c0-3.955-2.617-5-4-5c-0.806,0-0.988-0.549-1-1.008l-0.025-0.23c-0.004-0.086-0.001-0.256,0.008-0.438 c1.496-2.371,3.197-7.4-0.261-11.004C41.608,15.148,40.148,15,38.998,15c-1.155,0-1.86,0.418-2.376,0.723 c-0.305,0.18-0.472,0.273-0.604,0.277c-0.678-0.004-1.334,0.293-1.936,0.885C33.583,17.375,33,18.219,33,18.986 c0,5.088,1.365,7.51,2,8.359v0.662c0,0.33-0.604,0.979-2.013,0.979c-0.383,0.006-0.771,0.125-1.104,0.342 c-0.518-0.254-1.115-0.568-1.636-0.91c1.17,0.098,2.43,0.004,3.405-0.309l1.33-0.428l-0.833-1.121C34.128,26.531,32,23.615,32,19 c0-5.385-3.159-9-7.862-9h-0.12h-0.155C19.159,10,16,13.615,16,19c0,4.578-2.13,7.535-2.15,7.561l-0.833,1.121l1.33,0.428 c0.721,0.23,1.546,0.348,2.458,0.348c0.323,0,0.642-0.014,0.947-0.039c-0.758,0.498-1.685,0.941-2.278,1.215 c-0.388-0.412-0.935-0.639-1.474-0.646c-0.806,0-0.988-0.549-1-1.008l-0.025-0.23c-0.004-0.086-0.001-0.254,0.007-0.434 c1.543-2.418,3.296-7.51-0.281-11.027C11.541,15.146,10.113,15,8.999,15c-1.487,0-2.179,0.494-2.638,0.818 C6.104,16,6.069,16.016,6.017,16.018c-0.676,0.002-1.343,0.295-1.948,0.889C3.576,17.391,3,18.227,3,18.986 c0,5.088,1.365,7.51,2,8.359v0.629c-0.012,0.463-0.195,1.012-1,1.012c-1.384,0-4,1.045-4,5v1h11.439 c-0.299,1.051-0.427,1.848-0.43,1.867L10.843,38h26.313l-0.167-1.146c-0.003-0.02-0.13-0.816-0.431-1.867H48V33.986z M2.085,32.986 c0.345-1.848,1.636-1.99,1.915-2c2.201,0,3-1.793,3-3.008l-0.013-1.4l-0.271-0.287C6.699,26.271,5,24.396,4.996,19.043 c0.07-0.338,0.688-1.025,1.018-1.025c0.001,0,0.002,0,0.003,0c0.722-0.014,1.173-0.334,1.502-0.568C7.858,17.209,8.15,17,9,17 c0.817,0,1.661,0.086,2.299,0.713c3.427,3.371,0.021,8.494-0.126,8.711l-0.151,0.223l-0.019,0.266 c-0.049,0.658-0.03,0.994-0.001,1.178c0.04,1.086,0.72,2.563,2.425,2.848c-0.516,0.572-0.936,1.297-1.271,2.049H2.085z M13.232,36 c0.395-1.52,1.181-3.613,2.144-4.117c0.145-0.076,0.361-0.174,0.624-0.293c1.87-0.846,5-2.262,5-4.59v-1.59l-1.37,0.658 c-0.224,0.063-1.434,0.389-2.825,0.389c-0.193,0-0.382-0.006-0.563-0.02C16.99,24.982,18,22.389,18,19c0-4.254,2.3-7,5.862-7h0.155 h0.12C27.699,12,30,14.746,30,19c0,3.389,1.009,5.982,1.758,7.438c-0.182,0.014-0.369,0.02-0.563,0.02 c-1.392,0-2.603-0.326-2.826-0.389L27,25.41V27c0,2.328,3.13,3.744,5,4.59c0.262,0.119,0.479,0.217,0.622,0.293 c0.965,0.504,1.75,2.598,2.146,4.117H13.232z M35.843,32.986c-0.362-0.814-0.821-1.605-1.398-2.195 C36.104,30.342,37,29.154,37,28.008l-0.013-1.43l-0.271-0.287c-0.016-0.02-1.716-1.895-1.72-7.25C35.067,18.697,35.685,18,36.014,18 c0.002,0,0.002,0,0.004,0c0.704-0.014,1.214-0.314,1.623-0.557C38.059,17.195,38.391,17,39,17c0.838,0,1.694,0.084,2.278,0.691 c3.348,3.488,0.034,8.523-0.107,8.736l-0.149,0.221l-0.019,0.264c-0.049,0.658-0.029,0.994-0.001,1.178 c0.044,1.203,0.859,2.896,2.998,2.896c0.071,0,1.539,0.027,1.914,2H35.843z"/> 
</defs>

<use x="0" y="0" xlink:href="#i-428"/>

</svg>